<?xml version="1.0" encoding="utf-8"?><svg xmlns="http://www.w3.org/2000/svg" xmlns:xlink="http://www.w3.org/1999/xlink"><symbol viewBox="0 0 13 6" id="arrowback" xmlns="http://www.w3.org/2000/svg"><defs><style>.aacls-1{fill-rule:evenodd}</style></defs><path id="aaarrowback" class="aacls-1" d="M207.93 193.07a.243.243 0 0 0-.18-.07h-9.25v-1.75a.237.237 0 0 0-.148-.227.245.245 0 0 0-.274.047l-3 2.766a.255.255 0 0 0-.078.187.247.247 0 0 0 .078.18l3 2.734a.253.253 0 0 0 .274.04.228.228 0 0 0 .148-.227V195h9.25a.243.243 0 0 0 .18-.07.247.247 0 0 0 .07-.18v-1.5a.247.247 0 0 0-.07-.18z" transform="translate(-195 -191)"/></symbol><symbol viewBox="0 0 11 6.875" id="arrowdown" xmlns="http://www.w3.org/2000/svg"><defs><style>.abcls-1{fill-rule:evenodd}</style></defs><path id="abarrowdown" class="abcls-1" d="M68 158.4l-5.5 5.486L57 158.4l1.406-1.4 4.1 4.085 4.1-4.085z" transform="translate(-57 -157)"/></symbol><symbol viewBox="0 0 7.75 13.031" id="arrowleft" xmlns="http://www.w3.org/2000/svg"><defs><style>.accls-1{fill-rule:evenodd}</style></defs><path id="acarrowleft" class="accls-1" d="M116.947 91.462l-5.064 5.1 4.918 5.173-1.47 1.355-6.158-6.552 6.36-6.486z" transform="translate(-109.188 -90.063)"/></symbol><symbol viewBox="0 0 7.75 13.031" id="arrowright" xmlns="http://www.w3.org/2000/svg"><defs><style>.adcls-1{fill-rule:evenodd}</style></defs><path id="adarrowright" class="adcls-1" d="M152.178 91.462l5.064 5.1-4.918 5.173 1.47 1.355 6.158-6.552-6.36-6.486z" transform="translate(-152.188 -90.063)"/></symbol><symbol viewBox="0 0 3.968 6.156" id="arrowrightsmall" xmlns="http://www.w3.org/2000/svg"><defs><style>.aecls-1{fill-rule:evenodd}</style></defs><path id="aearrowrightsmall" class="aecls-1" d="M334.286 101.579l-3.324 2.954-.665-.748 2.532-2.249-2.452-2.452.707-.707z" transform="translate(-330.313 -98.375)"/></symbol><symbol viewBox="0 0 19 19" id="ask" xmlns="http://www.w3.org/2000/svg"><defs><style>.afcls-1{fill-rule:evenodd}</style></defs><path id="afask" class="afcls-1" d="M371.888 195.875h1.224v1.225h-1.224v-1.224zM372.5 183a9.5 9.5 0 1 0 9.5 9.5 9.5 9.5 0 0 0-9.5-9.5zm0 17.993a8.493 8.493 0 1 1 8.493-8.493 8.494 8.494 0 0 1-8.493 8.493zm3.105-10.851a3.193 3.193 0 0 0-6.3.759h1.128a2.163 2.163 0 0 1 2.2-1.93c1.444.073 1.754.913 1.742 2.2a1.887 1.887 0 0 1-1.81 1.544.664.664 0 0 0-.616.741l.031 1.466 1-.032.031-.91a3.383 3.383 0 0 0 2.594-3.838z" transform="translate(-363 -183)"/></symbol><symbol class="agsvg-inline--fa agfa-bars agfa-w-14" viewBox="0 0 448 512" id="bars-solid" xmlns="http://www.w3.org/2000/svg"><path d="M16 132h416c8.837 0 16-7.163 16-16V76c0-8.837-7.163-16-16-16H16C7.163 60 0 67.163 0 76v40c0 8.837 7.163 16 16 16zm0 160h416c8.837 0 16-7.163 16-16v-40c0-8.837-7.163-16-16-16H16c-8.837 0-16 7.163-16 16v40c0 8.837 7.163 16 16 16zm0 160h416c8.837 0 16-7.163 16-16v-40c0-8.837-7.163-16-16-16H16c-8.837 0-16 7.163-16 16v40c0 8.837 7.163 16 16 16z"/></symbol><symbol viewBox="0 0 14 14.031" id="calendar" xmlns="http://www.w3.org/2000/svg"><defs><style>.ahcls-1{fill-rule:evenodd}</style></defs><path id="ahcalendar" class="ahcls-1" d="M151 194l12 .031v8L151 202v-8zm3.43-1.32a.247.247 0 0 1-.18.07h-.5a.247.247 0 0 1-.18-.07.243.243 0 0 1-.07-.18v-2.25a.24.24 0 0 1 .25-.25h.5a.243.243 0 0 1 .18.07.247.247 0 0 1 .07.18v2.25a.247.247 0 0 1-.07.18zm6 0a.247.247 0 0 1-.18.07h-.5a.247.247 0 0 1-.18-.07.243.243 0 0 1-.07-.18v-2.25a.24.24 0 0 1 .25-.25h.5a.243.243 0 0 1 .18.07.247.247 0 0 1 .07.18v2.25a.247.247 0 0 1-.07.18zm3.273-1.352a.96.96 0 0 0-.7-.3L161.5 191v-.75a1.253 1.253 0 0 0-1.25-1.25h-.5a1.253 1.253 0 0 0-1.25 1.25v.75h-3v-.75a1.253 1.253 0 0 0-1.25-1.25h-.5a1.253 1.253 0 0 0-1.25 1.25v.75H151a1.014 1.014 0 0 0-1 1v10a1.014 1.014 0 0 0 1 1l12 .031a1.014 1.014 0 0 0 1-1v-10a.96.96 0 0 0-.3-.703z" transform="translate(-150 -189)"/></symbol><symbol viewBox="0 0 16 15" id="cart" xmlns="http://www.w3.org/2000/svg"><defs><style>.aicls-1{fill-rule:evenodd}</style></defs><path id="aicart" class="aicls-1" d="M160.655 62.262a1.619 1.619 0 0 0 2.284 2.294 1.533 1.533 0 0 0 .45-1.128 1.6 1.6 0 0 0-.45-1.146 1.487 1.487 0 0 0-1.123-.47 1.567 1.567 0 0 0-1.161.45zm-11.648-11.285h1.61l2.884 5.684-1.055 1.993a1.627 1.627 0 0 0 .262 1.879 1.554 1.554 0 0 0 1.093.458h9.588V60H153.7a.165.165 0 0 1-.187-.188l.037-.113.525-1.409h6.58a1.475 1.475 0 0 0 .805-.226 3.1 3.1 0 0 0 .581-.914l2.846-5.375c.075-.126.262-.127-.113-.5a.907.907 0 0 0-.561-.263h-12.055l-.748-1.017h-2.4v.985zm3.67 11.285a1.689 1.689 0 0 0 0 2.294 1.522 1.522 0 0 0 1.124.451 1.586 1.586 0 0 0 1.142-.451 1.5 1.5 0 0 0 .468-1.128 1.6 1.6 0 0 0-1.61-1.616 1.523 1.523 0 0 0-1.124.45zM155 56.991l-2.28-4.742h10.394l-2.214 4.742H155z" transform="translate(-149 -50)"/></symbol><symbol viewBox="0 0 10.406 7.657" id="check" xmlns="http://www.w3.org/2000/svg"><defs><style>.ajcls-1{fill-rule:evenodd}</style></defs><path id="ajcheck" class="ajcls-1" d="M259.845 192.343l-6.288 6.232-4.126-4.126 1.507-1.539 2.629 2.754 4.595-4.754z" transform="translate(-249.438 -190.906)"/></symbol><symbol viewBox="0 0 20 15" id="compare" xmlns="http://www.w3.org/2000/svg"><defs><style>.akcls-1{fill-rule:evenodd}</style></defs><path id="akcompare" class="akcls-1" d="M123 57.68a.407.407 0 0 0-.013-.059.489.489 0 0 0-.03-.15l-2.713-6.38h1.256a.542.542 0 1 0 0-1.084h-17a.542.542 0 1 0 0 1.084h1.258l-2.712 6.381a.529.529 0 0 0-.038.187v.071a3.581 3.581 0 0 0 7.16-.049c0-.02-.01-.037-.012-.058a.56.56 0 0 0-.03-.15l-2.713-6.381h5.039V63.91h-3.391a.542.542 0 1 0 0 1.084h7.882a.542.542 0 1 0 0-1.084h-3.392V51.088h5.039l-2.711 6.381a.511.511 0 0 0-.038.187v.072a3.581 3.581 0 0 0 7.159-.044zm-16.412-5.731l2.206 5.189h-4.411zm0 8.176a2.475 2.475 0 0 1-2.416-1.9H109a2.475 2.475 0 0 1-2.416 1.9zm12.83-8.176l2.2 5.189h-4.41zm0 8.176a2.474 2.474 0 0 1-2.416-1.9h4.831a2.473 2.473 0 0 1-2.419 1.9z" transform="translate(-103 -50)"/></symbol><symbol viewBox="0 0 14 11" id="creditcard" xmlns="http://www.w3.org/2000/svg"><defs><style>.alcls-1{fill-rule:evenodd}</style></defs><path id="alcreditcard" class="alcls-1" d="M363.165 52.992a1.115 1.115 0 0 0-.823.347 1.141 1.141 0 0 0-.343.834v8.635a1.142 1.142 0 0 0 .343.834 1.116 1.116 0 0 0 .823.347h11.658a1.116 1.116 0 0 0 .823-.347 1.145 1.145 0 0 0 .343-.834v-8.636a1.145 1.145 0 0 0-.343-.834 1.115 1.115 0 0 0-.823-.347h-11.658zM374.76 54a.223.223 0 0 1 .164.07.23.23 0 0 1 .069.166v1.786h-11.967v-1.787a.23.23 0 0 1 .069-.166.223.223 0 0 1 .164-.07h11.5zm-11.5 9.014a.221.221 0 0 1-.164-.07.228.228 0 0 1-.069-.166v-4.8h11.967v4.8a.228.228 0 0 1-.069.166.221.221 0 0 1-.164.07h-11.5zm2.721-1.039v-.946h-1.959v.944h1.959zm4.011 0v-.946h-2.985v.944h2.985z" transform="translate(-362 -53)"/></symbol><symbol viewBox="0 0 10.5 10.5" id="cross" xmlns="http://www.w3.org/2000/svg"><defs><style>.amcls-1{fill-rule:evenodd}</style></defs><path id="amcross" class="amcls-1" d="M290.054 130.248l4.183 4.184-1.055 1.055L289 131.3l-4.185 4.184-1.054-1.055 4.183-4.184-4.183-4.183 1.054-1.055 4.185 4.187 4.183-4.184 1.055 1.055z" transform="translate(-283.75 -125)"/></symbol><symbol viewBox="0 0 55.719 60.375" id="done" xmlns="http://www.w3.org/2000/svg"><defs><style>.ancls-1{fill-rule:evenodd}</style></defs><path id="andone" class="ancls-1" d="M61.964 276.357a2.353 2.353 0 1 1 1.632-.689 2.231 2.231 0 0 1-1.632.689zm43.327-20.276a2.4 2.4 0 0 1-1.94 1.7 4.886 4.886 0 0 1 .907 1.722 6.546 6.546 0 0 1 .362 2.014 5.737 5.737 0 0 1-1.922 4.316 5.025 5.025 0 0 1 .653 2.5 6.118 6.118 0 0 1-.635 2.666 4.034 4.034 0 0 1-1.723 1.9 12.392 12.392 0 0 1 .182 2.031q0 6.058-6.965 6.058h-4.389q-4.752 0-12.405-2.648-.182-.072-1.052-.381l-1.288-.453q-.417-.145-1.27-.418t-1.378-.4q-.526-.127-1.2-.236a7.271 7.271 0 0 0-1.142-.109h-1.158v-23.2h1.161a3.11 3.11 0 0 0 1.288-.327 6.121 6.121 0 0 0 1.451-.979q.743-.653 1.4-1.288a20.579 20.579 0 0 0 1.451-1.6q.8-.96 1.251-1.542t1.143-1.487q.688-.906.834-1.088 1.995-2.466 2.793-3.3a9.213 9.213 0 0 0 2.158-3.971q.671-2.412 1.106-4.552a6.01 6.01 0 0 1 1.378-3.084q3.482 0 4.643 1.705a9.474 9.474 0 0 1 1.161 5.26 14.812 14.812 0 0 1-1.741 5.821 14.8 14.8 0 0 0-1.741 5.786h12.767a4.478 4.478 0 0 1 3.229 1.4 4.425 4.425 0 0 1 1.414 3.247 7.109 7.109 0 0 1-.783 2.937zm2.667-9.468a8.93 8.93 0 0 0-6.53-2.756h-6.383a15.923 15.923 0 0 0 1.741-6.964 15.043 15.043 0 0 0-1.27-6.747 7.978 7.978 0 0 0-3.7-3.682 12.4 12.4 0 0 0-5.477-1.178 4.605 4.605 0 0 0-3.265 1.341 8.723 8.723 0 0 0-2.249 3.918q-.689 2.394-1.106 4.588a6.161 6.161 0 0 1-1.287 3.1q-1.778 1.923-3.881 4.643-3.664 4.752-4.969 5.622h-9.939A4.644 4.644 0 0 0 55 253.143v23.214A4.645 4.645 0 0 0 59.643 281h10.446a26.783 26.783 0 0 1 5.005 1.451q4.462 1.558 7.853 2.375a29.229 29.229 0 0 0 6.874.817H94.5a11.565 11.565 0 0 0 8.234-2.92 10.269 10.269 0 0 0 3.083-7.962 10.209 10.209 0 0 0 2.177-6.456 10.956 10.956 0 0 0-.109-1.56 10.413 10.413 0 0 0 1.378-5.223 9.5 9.5 0 0 0-.326-2.5 10.493 10.493 0 0 0 1.777-5.913 8.889 8.889 0 0 0-2.756-6.496z" transform="translate(-55 -225.281)"/></symbol><symbol viewBox="0 0 16 12.593" id="envelope" xmlns="http://www.w3.org/2000/svg"><defs><style>.aocls-1{fill-rule:evenodd}</style></defs><path id="aoenvelope" class="aocls-1" d="M120.772 202.915a.271.271 0 0 1-.2.085h-13.143a.29.29 0 0 1-.286-.286v-6.857a5.188 5.188 0 0 0 .616.589q2.392 1.84 3.8 3.018.456.384.742.6a4.033 4.033 0 0 0 .772.433 2.234 2.234 0 0 0 .915.219h.018a2.234 2.234 0 0 0 .915-.219 4.064 4.064 0 0 0 .772-.433q.287-.213.741-.6 1.412-1.178 3.8-3.018a5.188 5.188 0 0 0 .616-.589v6.857a.271.271 0 0 1-.078.201zm-.33-8.411a4.206 4.206 0 0 1-.9 1.032q-1.724 1.358-3.581 2.83l-.312.263q-.26.219-.411.335c-.1.078-.234.171-.4.282a2.411 2.411 0 0 1-.451.245 1.049 1.049 0 0 1-.384.08h-.018a1.049 1.049 0 0 1-.384-.08 2.411 2.411 0 0 1-.451-.245c-.164-.111-.3-.2-.4-.282s-.238-.189-.411-.335l-.312-.263q-1.859-1.473-3.581-2.83a3.126 3.126 0 0 1-1.303-2.536.29.29 0 0 1 .286-.286h13.142a.317.317 0 0 1 .125.023.159.159 0 0 1 .081.067l.049.08a.256.256 0 0 1 .027.111v.335a2.224 2.224 0 0 1-.411 1.17zm1.138-2.513a1.375 1.375 0 0 0-1.009-.42h-13.142A1.434 1.434 0 0 0 106 193v9.714a1.434 1.434 0 0 0 1.429 1.429h13.142a1.434 1.434 0 0 0 1.429-1.429V193a1.375 1.375 0 0 0-.42-1.009z" transform="translate(-106 -191.563)"/></symbol><symbol viewBox="0 0 7.5 15" id="fb" xmlns="http://www.w3.org/2000/svg"><defs><style>.apcls-1{fill-rule:evenodd}</style></defs><path id="apfb" class="apcls-1" d="M227.511 117.761a3.027 3.027 0 0 0-2.144.88 2.98 2.98 0 0 0-.879 2.108v2.989h-2.25v3.023h2.25v5.977h3.023v-5.977h2.25v-3.023h-2.25v-1.863a1.588 1.588 0 0 1 .176-.756.665.665 0 0 1 .563-.37h1.511v-2.988h-2.25z" transform="translate(-222.25 -117.75)"/></symbol><symbol viewBox="0 0 13 10.781" id="gift" xmlns="http://www.w3.org/2000/svg"><defs><style>.aqcls-1{fill-rule:evenodd}</style></defs><path id="aqgift" class="aqcls-1" d="M114.867 128.878a.628.628 0 0 1-.385.112h-1.92a.626.626 0 0 1-.385-.112.381.381 0 0 1-.151-.322V123h2.992v5.556a.381.381 0 0 1-.151.322zm-4.486-7.184a.8.8 0 0 1 .57-1.373.719.719 0 0 1 .577.259l1.055 1.348h-1.632a.776.776 0 0 1-.57-.234zm5.525.234h-1.624l1.047-1.348a.717.717 0 0 1 .577-.259.8.8 0 1 1 0 1.607zm4.032 1.147a.262.262 0 0 0-.193-.075h-3.839a1.876 1.876 0 1 0 0-3.751 1.7 1.7 0 0 0-1.407.645l-1.071 1.381-1.071-1.381a1.7 1.7 0 0 0-1.406-.645 1.876 1.876 0 1 0 0 3.751h-3.683a.257.257 0 0 0-.268.267v2.179a.258.258 0 0 0 .268.268h.741v3.513a.8.8 0 0 0 .8.8h9.357a.8.8 0 0 0 .8-.8v-3.513h.772a.258.258 0 0 0 .268-.268v-2.179a.262.262 0 0 0-.068-.192z" transform="translate(-107 -119.25)"/></symbol><symbol viewBox="0 0 18.375 11.625" id="google-plus" xmlns="http://www.w3.org/2000/svg"><defs><style>.arcls-1{fill-rule:evenodd}</style></defs><path id="arg_" data-name="g+" class="arcls-1" d="M268.179 156.32H266.5V158h-1.68v-1.68h-1.641v-1.641h1.641V153h1.68v1.68h1.68v1.641zm-7.031-1.641a1.478 1.478 0 0 1 .078.469l.039.508a5.734 5.734 0 0 1-1.543 4.082 5.511 5.511 0 0 1-4.043 1.582 5.743 5.743 0 0 1-4.14-1.68 5.846 5.846 0 0 1 0-8.281 5.743 5.743 0 0 1 4.14-1.68 5.42 5.42 0 0 1 3.906 1.563l-1.6 1.523a2.8 2.8 0 0 0-.879-.625 3.673 3.673 0 0 0-1.426-.312 3.485 3.485 0 0 0-2.558 1.094 3.834 3.834 0 0 0 0 5.156 3.484 3.484 0 0 0 2.558 1.093 3.309 3.309 0 0 0 2.461-.937 3.4 3.4 0 0 0 .86-1.562h-3.321v-1.993h5.469z" transform="translate(-249.813 -149.688)"/></symbol><symbol viewBox="0 0 20 13" id="grid" xmlns="http://www.w3.org/2000/svg"><defs><style>.ascls-1{fill-rule:evenodd}</style></defs><path id="asgrid" class="ascls-1" d="M291 152h6v6h-6v-6zm7 0h6v6h-6v-6zm-7 7h6v6h-6v-6zm7 0h6v6h-6v-6zm-14-7h6v6h-6v-6zm0 7h6v6h-6v-6z" transform="translate(-284 -152)"/></symbol><symbol viewBox="0 0 14.406 11.469" id="home" xmlns="http://www.w3.org/2000/svg"><defs><style>.atcls-1{fill-rule:evenodd}</style></defs><path id="athome" class="atcls-1" d="M116.562 162.089l-5.134-4.232-5.133 4.232a.131.131 0 0 1 0 .027.116.116 0 0 0 0 .027v4.285a.579.579 0 0 0 .571.572h3.429v-3.429h2.285V167H116a.579.579 0 0 0 .571-.572v-4.285a.125.125 0 0 0-.009-.054zm2.063-.772a.261.261 0 0 0-.1-.192l-1.956-1.625v-3.643a.275.275 0 0 0-.285-.286h-1.715a.275.275 0 0 0-.285.286v1.743l-2.179-1.821a1.1 1.1 0 0 0-1.357 0l-6.42 5.348a.261.261 0 0 0-.1.192.29.29 0 0 0 .063.21l.553.66a.3.3 0 0 0 .188.1.337.337 0 0 0 .214-.063l6.178-5.152 6.179 5.152a.274.274 0 0 0 .188.063h.026a.3.3 0 0 0 .188-.1l.553-.66a.29.29 0 0 0 .067-.212z" transform="translate(-104.219 -155.531)"/></symbol><symbol viewBox="0 0 13.719 13.718" id="instagram" xmlns="http://www.w3.org/2000/svg"><defs><style>.aucls-1{fill-rule:evenodd}</style></defs><path id="auinstagram" class="aucls-1" d="M257.357 129.821a2.288 2.288 0 1 1 1.616-.67 2.2 2.2 0 0 1-1.616.67zm0-5.8a3.506 3.506 0 1 0 2.491 1.027 3.393 3.393 0 0 0-2.491-1.031zm3.661-.964a.823.823 0 1 0 .58.241.794.794 0 0 0-.58-.245zm-2.036-1.147q.321 0 .861.027a7.03 7.03 0 0 1 .92.089 3.67 3.67 0 0 1 .639.165 2.34 2.34 0 0 1 1.3 1.3 3.465 3.465 0 0 1 .165.638 7.03 7.03 0 0 1 .09.92q.021.54.026.861t0 .942v2.308q0 .321-.026.862a7.03 7.03 0 0 1-.09.92 3.487 3.487 0 0 1-.165.638 2.34 2.34 0 0 1-1.3 1.3 3.67 3.67 0 0 1-.639.165 7.208 7.208 0 0 1-.92.089q-.54.022-.861.027t-.942 0h-2.308c-.214 0-.5-.012-.862-.027a7.209 7.209 0 0 1-.919-.089 3.67 3.67 0 0 1-.639-.165 2.34 2.34 0 0 1-1.3-1.3 3.487 3.487 0 0 1-.165-.638 7.03 7.03 0 0 1-.09-.92q-.022-.54-.027-.862t0-.941v-2.309q0-.322.027-.861a7.03 7.03 0 0 1 .09-.92 3.465 3.465 0 0 1 .165-.638 2.34 2.34 0 0 1 1.3-1.3 3.67 3.67 0 0 1 .639-.165 7.031 7.031 0 0 1 .919-.089c.36-.015.648-.024.862-.027s.528 0 .942 0h1.366q.621-.01.942-.004zm5.187 2.8a3.8 3.8 0 0 0-3.982-3.982q-.785-.045-2.83-.045t-2.83.045a3.8 3.8 0 0 0-3.983 3.982q-.044.786-.044 2.83t.044 2.831a3.8 3.8 0 0 0 3.983 3.982q.785.045 2.83.045t2.83-.045a3.8 3.8 0 0 0 3.982-3.982q.045-.786.045-2.831t-.045-2.83z" transform="translate(-250.5 -120.688)"/></symbol><symbol viewBox="0 0 20 13" id="list" xmlns="http://www.w3.org/2000/svg"><defs><style>.avcls-1{fill-rule:evenodd}</style></defs><path id="avlist" class="avcls-1" d="M327 156v-3h15v3h-15zm0 5v-3h15v3h-15zm0 5v-3h15v3h-15zm-5-13h3v3h-3v-3zm0 5h3v3h-3v-3zm0 5h3v3h-3v-3z" transform="translate(-322 -153)"/></symbol><symbol id="logomini" viewBox="0 0 26 26" xmlns="http://www.w3.org/2000/svg"><defs><style>.awcls-1{fill:#e3071d}.awcls-2{fill:#fff;fill-rule:evenodd}</style></defs><rect class="awcls-1" width="26" height="26" rx="3" ry="3"/><path class="awcls-2" d="M293.123 99.957a29.276 29.276 0 0 0 .105 3.711.862.862 0 0 0 1.237.339 1.763 1.763 0 0 0 .378-1.572c-.011-4.07.759-3.233-2.487-5.313l2-1.941c1.429 2.144.592 1.843 3.737 1.855a1.828 1.828 0 0 0 1.18-.18.522.522 0 0 0-.342-.87l-2.485-.106a5.694 5.694 0 0 1-1.1-1.522 3.848 3.848 0 0 0-1.2-1.491c-1.047-.505-1.942.829-3.063 1.955-.453.456-.838.848-1.3 1.3a1.242 1.242 0 0 0-.085 1.889c.278.253 2.836 1.593 3.422 1.949zm2.717-9.484a1.472 1.472 0 1 1-1.472 1.473 1.472 1.472 0 0 1 1.472-1.473zm3.889 8.671a3.927 3.927 0 1 1-3.927 3.927 3.927 3.927 0 0 1 3.927-3.927zm0 1.3a2.627 2.627 0 1 1-2.627 2.627 2.627 2.627 0 0 1 2.627-2.627zm-11.465-1.3a3.927 3.927 0 1 1-3.927 3.927 3.927 3.927 0 0 1 3.927-3.927zm0 1.3a2.627 2.627 0 1 1-2.628 2.627 2.627 2.627 0 0 1 2.628-2.627z" transform="translate(-281 -86)"/></symbol><symbol viewBox="0 0 13 11" id="lowprice" xmlns="http://www.w3.org/2000/svg"><defs><style>.axcls-1{fill-rule:evenodd}</style></defs><path id="axlowprice" class="axcls-1" d="M366.979 116.025V106h-.991v10.987H379v-.966h-12.021zm11.523-1.316a.187.187 0 0 1-.146.065h-2.764a.191.191 0 0 1-.187-.14.231.231 0 0 1 .048-.254l.768-.865-2.948-3.319-1.48 1.666a.184.184 0 0 1-.292 0l-3.717-4.184 1.22-1.373 2.643 2.975 1.48-1.666a.184.184 0 0 1 .292 0l4.022 4.527.769-.865a.175.175 0 0 1 .225-.054.216.216 0 0 1 .124.211v3.112a.237.237 0 0 1-.059.164z" transform="translate(-366 -106)"/></symbol><symbol viewBox="0 0 41 25" id="mastercard" xmlns="http://www.w3.org/2000/svg"><defs><style>.aycls-1{fill-rule:evenodd}</style></defs><path id="aymastercard" class="aycls-1" d="M229.99 161.5a12.381 12.381 0 0 1-12.268 12.493 12.1 12.1 0 0 1-8.238-3.23 12.1 12.1 0 0 1-8.226 3.227 12.493 12.493 0 0 1-.079-24.98h.079a12.1 12.1 0 0 1 8.227 3.227 12.107 12.107 0 0 1 8.231-3.23 12.382 12.382 0 0 1 12.275 12.488.007.007 0 0 0-.001.005zm-30.69-1.9a4.237 4.237 0 0 0-1.469.264l-.176 1.031a3.873 3.873 0 0 1 1.322-.211c.452 0 .782.05.782.411a.766.766 0 0 1-.04.3s-.356-.029-.521-.029c-1.049 0-2.151.441-2.151 1.772a1.142 1.142 0 0 0 1.171 1.29 1.589 1.589 0 0 0 1.244-.548l-.04.457h1.068l.476-3.295a1.43 1.43 0 0 0-1.666-1.442zm-.6 3.827a.439.439 0 0 1-.474-.452c0-.327.18-.721 1.069-.721a.822.822 0 0 1 .264.028 1.061 1.061 0 0 1-.859 1.149zm3.788-2.332c0 .6 1.446.3 1.446 1.79a1.559 1.559 0 0 1-1.834 1.521 3.892 3.892 0 0 1-1.361-.147l.162-1.046a3.978 3.978 0 0 0 1.077.183c.327 0 .751-.032.751-.418 0-.577-1.518-.439-1.518-1.809a1.548 1.548 0 0 1 1.807-1.562 5.663 5.663 0 0 1 1.119.095l-.153 1.055s-.658-.053-.828-.053c-.434.005-.67.096-.67.396zm2.879 1.82c-.027.165.02.386.442.386.107 0 .229-.035.313-.035l-.152 1.017a3.254 3.254 0 0 1-.909.157.894.894 0 0 1-.967-1.014c0-.475.69-4.383.716-4.408h1.213l-.124.7h.601l-.155 1.126h-.642zm4.678-.494a8.455 8.455 0 0 0 .16-1.09 1.613 1.613 0 0 0-1.729-1.75c-1.219 0-2.122 1.3-2.122 2.761a1.891 1.891 0 0 0 2.095 2.092 3.157 3.157 0 0 0 1.281-.194l.213-1.156a3.792 3.792 0 0 1-1.287.3c-1.3 0-1.074-.959-1.074-.959h2.463zm-1.564-1.768a.636.636 0 0 1 .557.82h-1.348a.868.868 0 0 1 .789-.816zm-11-2.005l-.956 5.7h-1.242l.691-4.295-1.558 4.295h-.836l-.108-4.295-.738 4.295h-1.17l.969-5.7h1.77l.062 3.5 1.195-3.5h1.921zm15.648 1.024a4.56 4.56 0 0 0-.451 1.387c-.842-.293-.908 1.313-1.261 3.3h-1.244l.756-4.637h1.129l-.108.671a1.4 1.4 0 0 1 .945-.73 1.187 1.187 0 0 1 .232.013zm2.245 3.6a2.939 2.939 0 0 0 1-.294l-.216 1.3a5.721 5.721 0 0 1-1.061.163c-1.447 0-2.182-.984-2.182-2.477 0-2.25 1.362-3.448 2.761-3.448a4.4 4.4 0 0 1 1.365.293l-.2 1.267a2.179 2.179 0 0 0-1.113-.342c-.825 0-1.565.777-1.565 2.19a1.19 1.19 0 0 0 1.209 1.352zm7.362-.8a1.7 1.7 0 0 0 1.5 1.941 1.523 1.523 0 0 0 1.129-.5l-.053.425h1.18l.927-5.688h-1.216l-.263 1.6a1.6 1.6 0 0 0-1.17-.623c-1.111.009-2.036 1.331-2.036 2.848zm2.906-.7a1.327 1.327 0 0 1-.974 1.476c-.436 0-.641-.362-.641-.929 0-.928.422-1.539.955-1.539.434.007.658.303.658.999zm-6.684-2.175a4.223 4.223 0 0 0-1.469.264l-.179 1.039a3.873 3.873 0 0 1 1.322-.211c.452 0 .782.05.782.411a.749.749 0 0 1-.041.3s-.355-.029-.522-.029c-1.048 0-2.149.441-2.149 1.772a1.143 1.143 0 0 0 1.17 1.29 1.6 1.6 0 0 0 1.245-.548l-.04.457h1.067l.477-3.295a1.429 1.429 0 0 0-1.665-1.447zm-.6 3.827a.438.438 0 0 1-.474-.452c0-.327.18-.721 1.068-.721a.839.839 0 0 1 .265.028 1.063 1.063 0 0 1-.859 1.152zm4.5-2.368c-.842-.295-.907 1.313-1.261 3.294h-1.245l.757-4.637h1.129l-.108.672a1.4 1.4 0 0 1 .947-.731 1.253 1.253 0 0 1 .233.016 4.535 4.535 0 0 0-.452 1.393z" transform="translate(-189 -149)"/></symbol><symbol viewBox="0 0 12 2" id="minus" xmlns="http://www.w3.org/2000/svg"><path d="M0 0h12v2H0z"/></symbol><symbol viewBox="0 0 8.563 14.281" id="mobile" xmlns="http://www.w3.org/2000/svg"><defs><style>.bacls-1{fill-rule:evenodd}</style></defs><path id="bamobile" class="bacls-1" d="M227.286 63.464a.9.9 0 1 1 .63-.262.86.86 0 0 1-.63.262zm3.108-2.428a.344.344 0 0 1-.251.106h-5.715a.362.362 0 0 1-.357-.357v-7.856a.362.362 0 0 1 .357-.357h5.715a.362.362 0 0 1 .357.357v7.857a.345.345 0 0 1-.106.251zm-2.216-9.536h-1.785a.179.179 0 1 1 0-.357h1.785a.179.179 0 1 1 0 .357zm2.969-1.362a1.375 1.375 0 0 0-1-.424h-5.715A1.448 1.448 0 0 0 223 51.143v11.428A1.449 1.449 0 0 0 224.428 64h5.715a1.449 1.449 0 0 0 1.428-1.428V51.143a1.373 1.373 0 0 0-.424-1.005z" transform="translate(-223 -49.719)"/></symbol><symbol viewBox="0 0 11 11" id="percent" xmlns="http://www.w3.org/2000/svg"><defs><style>.bbcls-1{fill-rule:evenodd}</style></defs><path id="bbpercent" class="bbcls-1" d="M374.458 89.66a1.11 1.11 0 0 1-.784-.309.975.975 0 0 1 0-1.463 1.148 1.148 0 0 1 1.567 0 .973.973 0 0 1 0 1.463 1.106 1.106 0 0 1-.783.309zm-5.914-6.231a1.122 1.122 0 0 1-.792-.312.985.985 0 0 1 0-1.478 1.16 1.16 0 0 1 1.583 0 .983.983 0 0 1 0 1.478 1.12 1.12 0 0 1-.791.313zm5.917 2.815a2.542 2.542 0 0 0-1.8.7 2.262 2.262 0 0 0 0 3.356 2.671 2.671 0 0 0 3.595 0 2.262 2.262 0 0 0 0-3.356 2.542 2.542 0 0 0-1.795-.7zm1.34-5.515a.423.423 0 0 0-.3-.117h-.619a.405.405 0 0 0-.337.161l-7.107 8.7a.374.374 0 0 0-.086.235.367.367 0 0 0 .126.278.42.42 0 0 0 .3.118h.643a.406.406 0 0 0 .337-.161l7.084-8.7a.379.379 0 0 0 .086-.235.368.368 0 0 0-.128-.279zm-7.259-.723a2.538 2.538 0 0 0-1.8.7 2.262 2.262 0 0 0 0 3.356 2.67 2.67 0 0 0 3.594 0 2.262 2.262 0 0 0 0-3.356 2.538 2.538 0 0 0-1.794-.7z" transform="translate(-366 -80)"/></symbol><symbol viewBox="0 0 14.156 14.156" id="phone" xmlns="http://www.w3.org/2000/svg"><defs><style>.bccls-1{fill-rule:evenodd}</style></defs><path id="bcphone" class="bccls-1" d="M262.113 60.816a1.734 1.734 0 0 0-.764-.532q-.19-.111-.542-.3a38.221 38.221 0 0 1-1.176-.663c-.026-.02-.11-.079-.25-.176a2.85 2.85 0 0 0-.357-.216.654.654 0 0 0-.287-.07.834.834 0 0 0-.5.286 4.839 4.839 0 0 0-.552.623 6.158 6.158 0 0 1-.532.623.768.768 0 0 1-.463.287.676.676 0 0 1-.225-.05 1.951 1.951 0 0 1-.206-.086 3.255 3.255 0 0 1-.242-.14l-.19-.116a9.956 9.956 0 0 1-4.109-4.108c-.006-.013-.045-.077-.115-.191s-.117-.194-.141-.241a2.151 2.151 0 0 1-.085-.206.67.67 0 0 1-.051-.226.766.766 0 0 1 .287-.462 6.009 6.009 0 0 1 .623-.532 4.862 4.862 0 0 0 .622-.553.834.834 0 0 0 .287-.5.655.655 0 0 0-.071-.286 2.723 2.723 0 0 0-.216-.357c-.1-.141-.155-.224-.175-.251a31.395 31.395 0 0 1-.663-1.175c-.127-.238-.228-.415-.3-.542a1.719 1.719 0 0 0-.532-.764.565.565 0 0 0-.211-.03 3.313 3.313 0 0 0-.708.1 3.993 3.993 0 0 0-.688.211 2.691 2.691 0 0 0-1.065 1.225 3.742 3.742 0 0 0-.477 2.4 3.969 3.969 0 0 0 .126.578q.09.316.145.472t.206.557q.151.4.181.492a9.037 9.037 0 0 0 .834 1.758 17.19 17.19 0 0 0 4.821 4.821 9.068 9.068 0 0 0 1.758.834q.09.03.492.181c.268.1.454.169.557.206s.262.086.473.146a4.133 4.133 0 0 0 .577.126 4 4 0 0 0 .532.035 3.894 3.894 0 0 0 1.869-.512 2.689 2.689 0 0 0 1.225-1.065 3.969 3.969 0 0 0 .211-.688 3.321 3.321 0 0 0 .1-.708.566.566 0 0 0-.03-.211z" transform="translate(-248 -49.844)"/></symbol><symbol viewBox="0 0 9.156 13.718" id="pin" xmlns="http://www.w3.org/2000/svg"><defs><style>.bdcls-1{fill-rule:evenodd}</style></defs><path id="bdpin" class="bdcls-1" d="M192.571 126.285a2.286 2.286 0 1 1 1.616-.669 2.2 2.2 0 0 1-1.616.669zm3.232-5.517A4.571 4.571 0 0 0 188 124a3.767 3.767 0 0 0 .294 1.6l3.259 6.911a1.036 1.036 0 0 0 .415.464 1.16 1.16 0 0 0 1.206 0 1.086 1.086 0 0 0 .424-.464l3.25-6.911a3.766 3.766 0 0 0 .295-1.6 4.4 4.4 0 0 0-1.343-3.232z" transform="translate(-188 -119.438)"/></symbol><symbol viewBox="0 0 8.281 11.157" id="pinsmall" xmlns="http://www.w3.org/2000/svg"><defs><style>.becls-1{fill-rule:evenodd}</style></defs><path id="bepinsmall" class="becls-1" d="M371.7 138.277a2.362 2.362 0 0 1-1.74-.726 2.494 2.494 0 0 1 0-3.508 2.445 2.445 0 0 1 3.479 0 2.494 2.494 0 0 1 0 3.508 2.36 2.36 0 0 1-1.739.726zm2.92-5.4a4.464 4.464 0 0 0-5.841 0 3.406 3.406 0 0 0-1.21 2.626 2.777 2.777 0 0 0 .266 1.3l2.945 5.615a.877.877 0 0 0 .375.378 1.143 1.143 0 0 0 1.089 0 .927.927 0 0 0 .384-.378l2.936-5.615a2.776 2.776 0 0 0 .267-1.3 3.407 3.407 0 0 0-1.208-2.629z" transform="translate(-367.563 -131.781)"/></symbol><symbol viewBox="0 0 12 12" id="plus" xmlns="http://www.w3.org/2000/svg"><defs><style>.bfcls-1{fill-rule:evenodd}</style></defs><path id="bfplus" class="bfcls-1" d="M339 196h-5v5h-2v-5h-5v-2h5v-5h2v5h5v2z" transform="translate(-327 -189)"/></symbol><symbol viewBox="0 0 12.844 12.844" id="refresh" xmlns="http://www.w3.org/2000/svg"><defs><style>.bgcls-1{fill-rule:evenodd}</style></defs><path id="bgrefresh" class="bgcls-1" d="M336.568 131.794a.258.258 0 0 0-.188-.08h-1.607a.25.25 0 0 0-.251.193 10.369 10.369 0 0 1-.444.979 4.27 4.27 0 0 1-3.649 2.042 4.175 4.175 0 0 1-1.566-.3 4.306 4.306 0 0 1-1.347-.854l1.146-1.146a.536.536 0 0 0-.376-.913h-3.75a.543.543 0 0 0-.536.536V136a.532.532 0 0 0 .912.376l1.08-1.079a6.4 6.4 0 0 0 2.038 1.314 6.271 6.271 0 0 0 2.365.46 6.136 6.136 0 0 0 4-1.393 6.5 6.5 0 0 0 2.243-3.638.131.131 0 0 0 .009-.058.256.256 0 0 0-.079-.188zm.13-6.885a.525.525 0 0 0-.753 0l-1.089 1.08a6.463 6.463 0 0 0-2.05-1.31 6.312 6.312 0 0 0-2.377-.465 6.18 6.18 0 0 0-4.018 1.394 6.523 6.523 0 0 0-2.26 3.637v.055a.27.27 0 0 0 .267.268h1.666a.25.25 0 0 0 .251-.192 10.168 10.168 0 0 1 .444-.98 4.27 4.27 0 0 1 3.65-2.042 4.157 4.157 0 0 1 2.921 1.147l-1.155 1.155a.536.536 0 0 0 .376.912h3.75a.543.543 0 0 0 .536-.535v-3.751a.514.514 0 0 0-.157-.373z" transform="translate(-324 -124.219)"/></symbol><symbol viewBox="0 0 13.969 12.781" id="review" xmlns="http://www.w3.org/2000/svg"><defs><style>.bhcls-1{fill-rule:evenodd}</style></defs><path id="bhreview" class="bhcls-1" d="M192.343 103.656a.709.709 0 0 0 .469-.188l2.469-2.468h4.063a1.242 1.242 0 0 0 .937-.39 1.752 1.752 0 0 0 .687-.953v-7.532a1.558 1.558 0 0 0-.687-.875 1.271 1.271 0 0 0-.937-.375h-10.688a1.274 1.274 0 0 0-.938.375 1.618 1.618 0 0 0-.718.875v7.531a1.813 1.813 0 0 0 .718.953 1.244 1.244 0 0 0 .938.39h2.687v2a.642.642 0 0 0 .657.656h.343zM188 99.875v-7.844h12v7.844h-5.282l-2.375 2.5v-2.5H188z" transform="translate(-187 -90.875)"/></symbol><symbol viewBox="0 0 15.906 12.687" id="sales" xmlns="http://www.w3.org/2000/svg"><defs><style>.bicls-1{fill-rule:evenodd}</style></defs><path id="bisales" class="bicls-1" d="M60.678 94.964a1.071 1.071 0 1 1 .758-.314 1.033 1.033 0 0 1-.758.314zm9.693 2.988l-5.985-5.977a2.967 2.967 0 0 0-1.833-.762h-3.482A1.087 1.087 0 0 0 58 92.286v3.482a2.583 2.583 0 0 0 .222.98 2.5 2.5 0 0 0 .54.845l5.985 5.994a1.027 1.027 0 0 0 .753.31 1.075 1.075 0 0 0 .762-.31l4.11-4.118a1.027 1.027 0 0 0 .31-.754 1.072 1.072 0 0 0-.31-.762zm3.214 0L67.6 91.976a2.967 2.967 0 0 0-1.833-.762h-1.874a2.967 2.967 0 0 1 1.833.762l5.985 5.977a1.072 1.072 0 0 1 .31.762 1.027 1.027 0 0 1-.31.754l-3.934 3.931a2.376 2.376 0 0 0 .444.377.939.939 0 0 0 .494.118 1.075 1.075 0 0 0 .762-.31l4.11-4.118a1.026 1.026 0 0 0 .31-.754 1.072 1.072 0 0 0-.31-.762z" transform="translate(-58 -91.219)"/></symbol><symbol viewBox="0 0 18 15.438" id="save" xmlns="http://www.w3.org/2000/svg"><defs><style>.bjcls-1{fill-rule:evenodd}</style></defs><path id="bjsave" class="bjcls-1" d="M68.826 58.134L63 63.749l-5.836-5.625a5.28 5.28 0 0 1-1.878-3.566 4.371 4.371 0 0 1 .216-1.436 2.8 2.8 0 0 1 .552-.989 2.65 2.65 0 0 1 .819-.6 3.625 3.625 0 0 1 .944-.311 5.739 5.739 0 0 1 .984-.08 2.888 2.888 0 0 1 1.125.256 5.141 5.141 0 0 1 1.11.643q.507.387.869.723a7.831 7.831 0 0 1 .6.618.659.659 0 0 0 .984 0 7.828 7.828 0 0 1 .6-.618q.362-.336.869-.723a5.138 5.138 0 0 1 1.11-.643 2.887 2.887 0 0 1 1.125-.256 5.745 5.745 0 0 1 .984.08 3.628 3.628 0 0 1 .944.311 2.654 2.654 0 0 1 .819.6 2.811 2.811 0 0 1 .552.989 4.379 4.379 0 0 1 .216 1.436 5.3 5.3 0 0 1-1.888 3.576zm1.9-7.031a4.832 4.832 0 0 0-3.526-1.246 4.007 4.007 0 0 0-1.271.216 5.159 5.159 0 0 0-1.206.583q-.557.367-.959.688a9.265 9.265 0 0 0-.763.683 9.334 9.334 0 0 0-.763-.683q-.4-.322-.959-.688a5.151 5.151 0 0 0-1.205-.583 4.009 4.009 0 0 0-1.271-.216 4.831 4.831 0 0 0-3.527 1.243A4.606 4.606 0 0 0 54 54.558a4.4 4.4 0 0 0 .236 1.386 6.071 6.071 0 0 0 .537 1.216 8.842 8.842 0 0 0 .683.979q.382.477.557.658a3.24 3.24 0 0 0 .276.261l6.269 6.042a.631.631 0 0 0 .884 0l6.258-6.022a6.569 6.569 0 0 0 2.3-4.52 4.607 4.607 0 0 0-1.276-3.458z" transform="translate(-54 -49.844)"/></symbol><symbol viewBox="0 0 15 15" id="search" xmlns="http://www.w3.org/2000/svg"><defs><style>.bkcls-1{fill-rule:evenodd}</style></defs><path id="bksearch" class="bkcls-1" d="M200.816 63.934l-3.606-3.606a6.318 6.318 0 1 0-.885.885l3.606 3.6a.624.624 0 0 0 .885-.879zm-8.5-2.55a5.065 5.065 0 1 1 5.066-5.063 5.069 5.069 0 0 1-5.061 5.063z" transform="translate(-186 -50)"/></symbol><symbol viewBox="0 0 11 10.875" id="searchsmall" xmlns="http://www.w3.org/2000/svg"><defs><style>.blcls-1{fill-rule:evenodd}</style></defs><path id="blsearchsmall" class="blcls-1" d="M370.648 166.125a3.469 3.469 0 1 1 2.447-1.016 3.337 3.337 0 0 1-2.447 1.016zm3.651-.574a5.528 5.528 0 0 0 1.008-2.89 4.571 4.571 0 0 0-.367-1.809 4.563 4.563 0 0 0-2.481-2.481 4.644 4.644 0 0 0-3.619 0 4.563 4.563 0 0 0-2.481 2.481 4.644 4.644 0 0 0 0 3.619 4.565 4.565 0 0 0 2.481 2.48 4.577 4.577 0 0 0 1.81.368 5.112 5.112 0 0 0 2.8-.915l2.238 2.2a.689.689 0 0 0 .533.283.6.6 0 0 0 .533-.126.815.815 0 0 0 .252-.6.838.838 0 0 0-.433-.47z" transform="translate(-366 -158)"/></symbol><symbol viewBox="0 0 14 14" id="send" xmlns="http://www.w3.org/2000/svg"><defs><style>.bmcls-1{fill-rule:evenodd}</style></defs><path id="bmsend" class="bmcls-1" d="M329.5 51a.475.475 0 0 0-.25.071l-13 7.5a.464.464 0 0 0-.25.461.46.46 0 0 0 .312.43l3.086 1.265 8.352-7.227-6.75 8.273V64.5a.5.5 0 0 0 .328.469.425.425 0 0 0 .172.031.461.461 0 0 0 .383-.18l1.89-2.3 3.539 1.445a.527.527 0 0 0 .188.035.48.48 0 0 0 .242-.062.492.492 0 0 0 .25-.352l2-12A.5.5 0 0 0 329.5 51z" transform="translate(-316 -51)"/></symbol><symbol viewBox="0 0 13.938 13.282" id="starfill" xmlns="http://www.w3.org/2000/svg"><defs><style>.bncls-1{fill-rule:evenodd}</style></defs><path id="bnstarfill" class="bncls-1" d="M233.46 95.173l-4.2-.611-1.884-3.809a.417.417 0 0 0-.82 0l-1.883 3.809-4.2.611a.436.436 0 0 0-.469.385.634.634 0 0 0 .209.4l3.047 2.963-.72 4.185a1.391 1.391 0 0 0-.017.167.5.5 0 0 0 .088.3.306.306 0 0 0 .264.122.715.715 0 0 0 .335-.1l3.758-1.975 3.759 1.975a.675.675 0 0 0 .334.1.3.3 0 0 0 .256-.122.5.5 0 0 0 .087-.3 1.2 1.2 0 0 0-.008-.167l-.72-4.185 3.039-2.963a.6.6 0 0 0 .217-.4.435.435 0 0 0-.468-.385z" transform="translate(-220 -90.406)"/></symbol><symbol viewBox="0 0 13.938 13.282" id="starstroke" xmlns="http://www.w3.org/2000/svg"><defs><style>.bocls-1{fill-rule:evenodd}</style></defs><path id="bostarstroke" class="bocls-1" d="M261.12 102.071l-3.156-1.666-3.164 1.666.611-3.525-2.561-2.486 3.532-.519 1.582-3.2 1.582 3.2 3.533.519-2.562 2.486zm3.34-6.9l-4.2-.611-1.884-3.809a.417.417 0 0 0-.82 0l-1.883 3.809-4.2.611a.436.436 0 0 0-.469.385.639.639 0 0 0 .209.4l3.047 2.963-.72 4.185a1.391 1.391 0 0 0-.017.167.5.5 0 0 0 .088.3.306.306 0 0 0 .264.122.715.715 0 0 0 .335-.1l3.758-1.975 3.758 1.975a.681.681 0 0 0 .335.1.341.341 0 0 0 .344-.419 1.167 1.167 0 0 0-.009-.167l-.72-4.185 3.039-2.963a.6.6 0 0 0 .217-.4.435.435 0 0 0-.468-.385z" transform="translate(-251 -90.406)"/></symbol><symbol viewBox="0 0 13.719 13.718" id="time" xmlns="http://www.w3.org/2000/svg"><defs><style>.bpcls-1{fill-rule:evenodd}</style></defs><path id="bptime" class="bpcls-1" d="M63.92 193.937a.28.28 0 0 0-.205-.08h-.572a.274.274 0 0 0-.286.286v3.143h-2a.275.275 0 0 0-.286.285v.572a.276.276 0 0 0 .286.286h2.857a.276.276 0 0 0 .286-.286v-4a.28.28 0 0 0-.08-.206zm1.375 7.554a4.882 4.882 0 0 1-4.875 0 4.838 4.838 0 0 1-1.768-1.768 4.884 4.884 0 0 1 0-4.875 4.845 4.845 0 0 1 1.768-1.768 4.889 4.889 0 0 1 4.875 0 4.846 4.846 0 0 1 1.768 1.768 4.884 4.884 0 0 1 0 4.875 4.838 4.838 0 0 1-1.768 1.768zm1-10.143a6.905 6.905 0 0 0-6.884 0 6.823 6.823 0 0 0-2.5 2.5 6.9 6.9 0 0 0 0 6.884 6.828 6.828 0 0 0 2.5 2.5 6.9 6.9 0 0 0 6.884 0 6.83 6.83 0 0 0 2.5-2.5 6.9 6.9 0 0 0 0-6.884 6.825 6.825 0 0 0-2.495-2.5z" transform="translate(-56 -190.438)"/></symbol><symbol viewBox="0 0 18 13.031" id="truck" xmlns="http://www.w3.org/2000/svg"><defs><style>.bqcls-1{fill-rule:evenodd}</style></defs><path id="bqtruck" class="bqcls-1" d="M65.375 124v2.042h3.375v-.542l-1.1-1.5h-2.275zm4.5 5.292h-.619a2.26 2.26 0 0 0-4.338 0h-.856v-6.282h4.4l1.542 2.1v4.184h-.129zm-2.788 1.625a1.084 1.084 0 1 1 1.125-1.083 1.108 1.108 0 0 1-1.125 1.082zm-9 0a1.084 1.084 0 1 1 1.125-1.083 1.108 1.108 0 0 1-1.125 1.082zm-4.056-10.9H63v9.271h-2.744a2.26 2.26 0 0 0-4.338 0h-1.887v-9.268zm16.9 4.66l-1.68-2.427a.56.56 0 0 0-.475-.264h-4.714v-2.476a.531.531 0 0 0-.538-.542h-9.937a.577.577 0 0 0-.587.542v10.323a.577.577 0 0 0 .587.542h2.331a2.26 2.26 0 0 0 4.338 0h4.662a2.26 2.26 0 0 0 4.338 0h1.206a.533.533 0 0 0 .538-.542v-4.875a.5.5 0 0 0-.067-.278z" transform="translate(-53 -118.969)"/></symbol><symbol viewBox="0 0 16 13" id="twitter" xmlns="http://www.w3.org/2000/svg"><defs><style>.brcls-1{fill-rule:evenodd}</style></defs><path id="brtwiter" class="brcls-1" d="M300.559 121.24a6.609 6.609 0 0 1-2.086.8 3.285 3.285 0 0 0-5.593 2.993 9.316 9.316 0 0 1-6.765-3.43 3.287 3.287 0 0 0 1.016 4.382 3.283 3.283 0 0 1-1.487-.412v.041a3.287 3.287 0 0 0 2.632 3.219 3.288 3.288 0 0 1-1.482.056 3.286 3.286 0 0 0 3.065 2.28 6.587 6.587 0 0 1-4.076 1.4 6.748 6.748 0 0 1-.783-.045 9.334 9.334 0 0 0 14.37-7.865l-.01-.425a6.6 6.6 0 0 0 1.64-1.7 6.548 6.548 0 0 1-1.884.517 3.3 3.3 0 0 0 1.443-1.811z" transform="translate(-285 -121)"/></symbol><symbol viewBox="0 0 14 13" id="user" xmlns="http://www.w3.org/2000/svg"><defs><style>.bscls-1{fill-rule:evenodd}</style></defs><path id="bsuser" class="bscls-1" d="M292.977 57.3a3.649 3.649 0 1 0-3.747-3.653 3.7 3.7 0 0 0 3.747 3.653zm0-6.343a2.691 2.691 0 1 1-2.759 2.69 2.733 2.733 0 0 1 2.759-2.695zM286.494 63h13.012a.485.485 0 0 0 .494-.482 4.649 4.649 0 0 0-4.7-4.584h-4.6a4.649 4.649 0 0 0-4.7 4.584.484.484 0 0 0 .494.482zm4.207-4.1h4.6a3.68 3.68 0 0 1 3.678 3.138h-11.956A3.689 3.689 0 0 1 290.7 58.9z" transform="translate(-286 -50)"/></symbol><symbol viewBox="0 0 14 10" id="video" xmlns="http://www.w3.org/2000/svg"><defs><style>.btcls-1{fill-rule:evenodd}</style></defs><path id="btvideo" class="btcls-1" d="M162.7 121.289a.546.546 0 0 0-.195-.039.464.464 0 0 0-.352.148L159 124.539v-1.289a2.253 2.253 0 0 0-2.25-2.25h-5.5a2.253 2.253 0 0 0-2.25 2.25v5.5a2.253 2.253 0 0 0 2.25 2.25h5.5a2.253 2.253 0 0 0 2.25-2.25v-1.3l3.148 3.148a.465.465 0 0 0 .352.149.546.546 0 0 0 .195-.039.468.468 0 0 0 .305-.458v-8.5a.467.467 0 0 0-.305-.461z" transform="translate(-149 -121)"/></symbol><symbol viewBox="0 0 40 12" id="visa" xmlns="http://www.w3.org/2000/svg"><defs><style>.bucls-1{fill-rule:evenodd}</style></defs><path id="buvisa" class="bucls-1" d="M175.366 156.223h-2.512a1.624 1.624 0 0 0-1.7.964l-4.826 10.654h3.414s.557-1.432.682-1.746h4.165c.1.406.394 1.741.394 1.741H178zm-4.009 7.493c.269-.669 1.295-3.25 1.295-3.25-.017.032.266-.672.433-1.109l.221 1 .752 3.357h-2.7zm-4.8.322c-.024 2.414-2.244 3.972-5.662 3.972a10.539 10.539 0 0 1-3.621-.62l.457-2.6.418.185a6.977 6.977 0 0 0 3.062.61c.934 0 1.935-.357 1.944-1.135.005-.51-.419-.873-1.685-1.442-1.234-.557-2.868-1.489-2.847-3.159.017-2.26 2.281-3.836 5.494-3.836a8.565 8.565 0 0 1 2.912.488l-.439 2.519-.294-.134a6.133 6.133 0 0 0-2.433-.445c-1.272 0-1.864.517-1.864 1-.006.544.689.9 1.827 1.441 1.874.826 2.741 1.833 2.728 3.156zM138 156.343l.042-.233h5.04a1.306 1.306 0 0 1 1.416.944l1.1 5.138c-1.077-2.687-3.673-4.923-7.598-5.849zm14.7-.123l-5.12 11.6h-3.439l-2.912-9.694a12.565 12.565 0 0 1 4.5 4.818l.339 1.2 3.184-7.928h3.444zm1.314-.009h3.253l-2.035 11.625h-3.25z" transform="translate(-138 -156)"/></symbol></svg>